<?xml version="1.0" standalone="no"?>
<!DOCTYPE svg PUBLIC "-//W3C//DTD SVG 20010904//EN"
 "http://www.w3.org/TR/2001/REC-SVG-20010904/DTD/svg10.dtd">
<svg version="1.0" xmlns="http://www.w3.org/2000/svg"
 width="197.000000pt" height="197.000000pt" viewBox="0 0 197.000000 197.000000"
 preserveAspectRatio="xMidYMid meet">
<metadata>
Created by potrace 1.11, written by Peter Selinger 2001-2013
</metadata>
<g transform="translate(0.000000,197.000000) scale(0.100000,-0.100000)"
fill="#000000" stroke="none">
<path d="M963 1948 c-6 -7 -41 -87 -78 -178 -37 -91 -85 -203 -105 -250 -21
-47 -89 -209 -150 -360 -62 -151 -190 -464 -285 -696 -95 -231 -176 -430 -179
-442 -6 -19 -4 -22 22 -22 16 0 34 6 40 12 5 7 31 64 57 127 27 63 55 121 64
130 9 9 113 58 231 108 510 218 713 303 735 309 25 6 11 39 206 -468 l83 -218
98 0 c54 0 98 1 98 3 0 2 -30 80 -66 173 -36 93 -101 261 -144 374 -159 416
-309 799 -328 836 -10 22 -65 159 -122 307 l-103 267 -32 0 c-18 0 -37 -6 -42
-12z m25 -360 c22 -57 91 -233 152 -393 62 -159 127 -320 146 -358 19 -37 34
-74 34 -82 0 -13 -20 -15 -122 -15 -68 0 -163 7 -213 15 -49 8 -137 15 -194
15 -112 0 -231 16 -231 31 0 5 22 62 49 127 27 64 99 241 161 392 140 344 157
383 169 376 5 -3 27 -52 49 -108z"/>
</g>
</svg>
